<svg width="806" height="163" viewBox="0 0 806 163" fill="none" xmlns="http://www.w3.org/2000/svg">
<mask id="path-1-outside-1_5_47" maskUnits="userSpaceOnUse" x="187.665" y="42.9204" width="618" height="99" fill="black">
<rect fill="white" x="187.665" y="42.9204" width="618" height="99"/>
<path d="M207.288 117.375H193.665L218.469 46.9204H234.225L259.063 117.375H245.439L226.622 61.3691H226.071L207.288 117.375ZM207.735 89.7504H244.889V100.002H207.735V89.7504Z"/>
<path d="M301.471 95.1515V64.534H313.925V117.375H301.85V107.983H301.299C300.107 110.942 298.146 113.361 295.416 115.242C292.71 117.123 289.373 118.063 285.406 118.063C281.942 118.063 278.881 117.295 276.22 115.758C273.583 114.199 271.519 111.939 270.028 108.981C268.537 105.999 267.792 102.399 267.792 98.1788V64.534H280.245V96.2523C280.245 99.6008 281.163 102.261 282.997 104.234C284.832 106.206 287.24 107.192 290.222 107.192C292.057 107.192 293.834 106.745 295.554 105.85C297.274 104.956 298.685 103.626 299.785 101.86C300.909 100.071 301.471 97.8348 301.471 95.1515Z"/>
<path d="M353.117 64.534V74.1665H322.74V64.534H353.117ZM330.24 51.8742H342.693V101.481C342.693 103.156 342.945 104.44 343.45 105.334C343.977 106.206 344.665 106.802 345.514 107.123C346.362 107.444 347.303 107.605 348.335 107.605C349.115 107.605 349.826 107.548 350.468 107.433C351.133 107.318 351.637 107.215 351.981 107.123L354.08 116.859C353.415 117.088 352.463 117.341 351.225 117.616C350.009 117.891 348.518 118.052 346.752 118.097C343.633 118.189 340.824 117.719 338.324 116.687C335.824 115.632 333.84 114.004 332.372 111.802C330.928 109.6 330.217 106.848 330.24 103.545V51.8742Z"/>
<path d="M386.013 118.407C380.853 118.407 376.381 117.272 372.597 115.001C368.812 112.731 365.877 109.554 363.79 105.472C361.726 101.39 360.694 96.6193 360.694 91.1609C360.694 85.7025 361.726 80.9207 363.79 76.8154C365.877 72.7102 368.812 69.5223 372.597 67.2518C376.381 64.9813 380.853 63.846 386.013 63.846C391.173 63.846 395.646 64.9813 399.43 67.2518C403.214 69.5223 406.138 72.7102 408.202 76.8154C410.289 80.9207 411.333 85.7025 411.333 91.1609C411.333 96.6193 410.289 101.39 408.202 105.472C406.138 109.554 403.214 112.731 399.43 115.001C395.646 117.272 391.173 118.407 386.013 118.407ZM386.082 108.431C388.88 108.431 391.219 107.662 393.1 106.126C394.981 104.566 396.38 102.479 397.297 99.8645C398.237 97.25 398.707 94.3373 398.707 91.1265C398.707 87.8928 398.237 84.9686 397.297 82.3541C396.38 79.7166 394.981 77.6181 393.1 76.0586C391.219 74.4991 388.88 73.7193 386.082 73.7193C383.215 73.7193 380.83 74.4991 378.926 76.0586C377.046 77.6181 375.635 79.7166 374.695 82.3541C373.778 84.9686 373.319 87.8928 373.319 91.1265C373.319 94.3373 373.778 97.25 374.695 99.8645C375.635 102.479 377.046 104.566 378.926 106.126C380.83 107.662 383.215 108.431 386.082 108.431Z"/>
<path d="M463.666 78.5011L452.314 79.7396C451.993 78.5928 451.431 77.5149 450.628 76.5058C449.848 75.4967 448.793 74.6825 447.463 74.0633C446.133 73.4441 444.505 73.1345 442.578 73.1345C439.986 73.1345 437.808 73.6963 436.042 74.8201C434.299 75.9439 433.439 77.4003 433.462 79.1891C433.439 80.7257 434.001 81.9757 435.147 82.9389C436.317 83.9022 438.243 84.6934 440.927 85.3126L449.94 87.2391C454.94 88.317 458.655 90.0257 461.086 92.365C463.54 94.7043 464.779 97.766 464.801 101.55C464.779 104.876 463.804 107.811 461.877 110.357C459.974 112.88 457.325 114.852 453.931 116.274C450.536 117.696 446.637 118.407 442.234 118.407C435.767 118.407 430.56 117.054 426.616 114.348C422.671 111.618 420.32 107.823 419.563 102.961L431.707 101.791C432.258 104.176 433.427 105.977 435.216 107.192C437.005 108.408 439.333 109.015 442.2 109.015C445.158 109.015 447.532 108.408 449.321 107.192C451.133 105.977 452.038 104.474 452.038 102.685C452.038 101.172 451.454 99.9219 450.284 98.9357C449.137 97.9495 447.348 97.1927 444.917 96.6652L435.904 94.7731C430.836 93.7181 427.086 91.9407 424.655 89.4408C422.224 86.918 421.02 83.7302 421.043 79.8772C421.02 76.6205 421.903 73.7996 423.692 71.4144C425.503 69.0063 428.015 67.1486 431.226 65.8413C434.459 64.5111 438.186 63.846 442.406 63.846C448.598 63.846 453.472 65.1647 457.027 67.8022C460.605 70.4397 462.818 74.006 463.666 78.5011Z"/>
<path d="M498.119 118.407C492.845 118.407 488.315 117.249 484.531 114.932C480.77 112.616 477.868 109.417 475.827 105.334C473.809 101.229 472.8 96.5046 472.8 91.1609C472.8 85.7943 473.832 81.0583 475.896 76.953C477.96 72.8248 480.873 69.614 484.634 67.3206C488.418 65.0042 492.89 63.846 498.051 63.846C502.339 63.846 506.135 64.6373 509.438 66.2197C512.763 67.7793 515.412 69.9924 517.384 72.8592C519.357 75.7031 520.481 79.0286 520.756 82.8357H508.853C508.371 80.29 507.224 78.1686 505.413 76.4714C503.624 74.7513 501.227 73.8913 498.223 73.8913C495.677 73.8913 493.441 74.5793 491.514 75.9554C489.588 77.3085 488.086 79.2579 487.008 81.8037C485.953 84.3494 485.425 87.3997 485.425 90.9545C485.425 94.5552 485.953 97.6513 487.008 100.243C488.063 102.812 489.542 104.795 491.446 106.194C493.372 107.57 495.631 108.259 498.223 108.259C500.057 108.259 501.697 107.915 503.142 107.226C504.61 106.516 505.837 105.495 506.823 104.165C507.809 102.835 508.486 101.218 508.853 99.3141H520.756C520.458 103.052 519.357 106.366 517.453 109.256C515.55 112.123 512.958 114.371 509.678 115.999C506.399 117.604 502.546 118.407 498.119 118.407Z"/>
<path d="M564.661 95.1515V64.534H577.114V117.375H565.039V107.983H564.489C563.296 110.942 561.335 113.361 558.606 115.242C555.9 117.123 552.563 118.063 548.595 118.063C545.132 118.063 542.07 117.295 539.41 115.758C536.773 114.199 534.708 111.939 533.218 108.981C531.727 105.999 530.982 102.399 530.982 98.1788V64.534H543.435V96.2523C543.435 99.6008 544.352 102.261 546.187 104.234C548.022 106.206 550.43 107.192 553.411 107.192C555.246 107.192 557.024 106.745 558.744 105.85C560.464 104.956 561.874 103.626 562.975 101.86C564.099 100.071 564.661 97.8348 564.661 95.1515Z"/>
<path d="M602.374 46.9204V117.375H589.92V46.9204H602.374Z"/>
<path d="M615.18 137.19V64.534H627.427V73.2721H628.149C628.791 71.9877 629.697 70.6231 630.867 69.1783C632.036 67.7105 633.619 66.4605 635.614 65.4285C637.609 64.3735 640.155 63.846 643.251 63.846C647.334 63.846 651.015 64.8895 654.294 66.9766C657.597 69.0407 660.211 72.1024 662.138 76.1618C664.087 80.1983 665.062 85.1521 665.062 91.0233C665.062 96.8257 664.11 101.757 662.207 105.816C660.303 109.875 657.712 112.972 654.432 115.104C651.152 117.237 647.437 118.304 643.286 118.304C640.258 118.304 637.747 117.799 635.752 116.79C633.757 115.781 632.151 114.565 630.936 113.144C629.743 111.699 628.814 110.334 628.149 109.05H627.633V137.19H615.18ZM627.392 90.9545C627.392 94.3717 627.874 97.3647 628.837 99.9333C629.823 102.502 631.234 104.509 633.068 105.954C634.926 107.376 637.174 108.087 639.811 108.087C642.563 108.087 644.868 107.353 646.726 105.885C648.584 104.394 649.983 102.364 650.923 99.7957C651.886 97.2041 652.368 94.2571 652.368 90.9545C652.368 87.6749 651.898 84.7622 650.957 82.2165C650.017 79.6708 648.618 77.6755 646.76 76.2306C644.903 74.7857 642.586 74.0633 639.811 74.0633C637.151 74.0633 634.892 74.7628 633.034 76.1618C631.176 77.5608 629.766 79.5217 628.803 82.0445C627.862 84.5673 627.392 87.5373 627.392 90.9545Z"/>
<path d="M702.113 64.534V74.1665H671.736V64.534H702.113ZM679.235 51.8742H691.689V101.481C691.689 103.156 691.941 104.44 692.446 105.334C692.973 106.206 693.661 106.802 694.51 107.123C695.358 107.444 696.299 107.605 697.331 107.605C698.11 107.605 698.821 107.548 699.464 107.433C700.129 107.318 700.633 107.215 700.977 107.123L703.076 116.859C702.411 117.088 701.459 117.341 700.22 117.616C699.005 117.891 697.514 118.052 695.748 118.097C692.629 118.189 689.82 117.719 687.32 116.687C684.82 115.632 682.836 114.004 681.368 111.802C679.924 109.6 679.213 106.848 679.235 103.545V51.8742Z"/>
<path d="M735.009 118.407C729.849 118.407 725.377 117.272 721.592 115.001C717.808 112.731 714.873 109.554 712.786 105.472C710.722 101.39 709.689 96.6193 709.689 91.1609C709.689 85.7025 710.722 80.9207 712.786 76.8154C714.873 72.7102 717.808 69.5223 721.592 67.2518C725.377 64.9813 729.849 63.846 735.009 63.846C740.169 63.846 744.642 64.9813 748.426 67.2518C752.21 69.5223 755.134 72.7102 757.198 76.8154C759.285 80.9207 760.329 85.7025 760.329 91.1609C760.329 96.6193 759.285 101.39 757.198 105.472C755.134 109.554 752.21 112.731 748.426 115.001C744.642 117.272 740.169 118.407 735.009 118.407ZM735.078 108.431C737.876 108.431 740.215 107.662 742.096 106.126C743.976 104.566 745.375 102.479 746.293 99.8645C747.233 97.25 747.703 94.3373 747.703 91.1265C747.703 87.8928 747.233 84.9686 746.293 82.3541C745.375 79.7166 743.976 77.6181 742.096 76.0586C740.215 74.4991 737.876 73.7193 735.078 73.7193C732.211 73.7193 729.826 74.4991 727.922 76.0586C726.042 77.6181 724.631 79.7166 723.691 82.3541C722.774 84.9686 722.315 87.8928 722.315 91.1265C722.315 94.3373 722.774 97.25 723.691 99.8645C724.631 102.479 726.042 104.566 727.922 106.126C729.826 107.662 732.211 108.431 735.078 108.431Z"/>
<path d="M770.899 117.375V64.534H782.974V73.3409H783.524C784.487 70.2906 786.139 67.9398 788.478 66.2885C790.84 64.6143 793.535 63.7772 796.562 63.7772C797.25 63.7772 798.019 63.8116 798.867 63.8804C799.739 63.9263 800.461 64.0066 801.034 64.1212V75.577C800.507 75.3935 799.67 75.233 798.523 75.0953C797.399 74.9348 796.31 74.8545 795.255 74.8545C792.984 74.8545 790.943 75.3476 789.131 76.3338C787.343 77.2971 785.932 78.6387 784.9 80.3588C783.868 82.0789 783.352 84.0627 783.352 86.3103V117.375H770.899Z"/>
</mask>
<path d="M207.288 117.375H193.665L218.469 46.9204H234.225L259.063 117.375H245.439L226.622 61.3691H226.071L207.288 117.375ZM207.735 89.7504H244.889V100.002H207.735V89.7504Z" fill="white"/>
<path d="M301.471 95.1515V64.534H313.925V117.375H301.85V107.983H301.299C300.107 110.942 298.146 113.361 295.416 115.242C292.71 117.123 289.373 118.063 285.406 118.063C281.942 118.063 278.881 117.295 276.22 115.758C273.583 114.199 271.519 111.939 270.028 108.981C268.537 105.999 267.792 102.399 267.792 98.1788V64.534H280.245V96.2523C280.245 99.6008 281.163 102.261 282.997 104.234C284.832 106.206 287.24 107.192 290.222 107.192C292.057 107.192 293.834 106.745 295.554 105.85C297.274 104.956 298.685 103.626 299.785 101.86C300.909 100.071 301.471 97.8348 301.471 95.1515Z" fill="white"/>
<path d="M353.117 64.534V74.1665H322.74V64.534H353.117ZM330.24 51.8742H342.693V101.481C342.693 103.156 342.945 104.44 343.45 105.334C343.977 106.206 344.665 106.802 345.514 107.123C346.362 107.444 347.303 107.605 348.335 107.605C349.115 107.605 349.826 107.548 350.468 107.433C351.133 107.318 351.637 107.215 351.981 107.123L354.08 116.859C353.415 117.088 352.463 117.341 351.225 117.616C350.009 117.891 348.518 118.052 346.752 118.097C343.633 118.189 340.824 117.719 338.324 116.687C335.824 115.632 333.84 114.004 332.372 111.802C330.928 109.6 330.217 106.848 330.24 103.545V51.8742Z" fill="white"/>
<path d="M386.013 118.407C380.853 118.407 376.381 117.272 372.597 115.001C368.812 112.731 365.877 109.554 363.79 105.472C361.726 101.39 360.694 96.6193 360.694 91.1609C360.694 85.7025 361.726 80.9207 363.79 76.8154C365.877 72.7102 368.812 69.5223 372.597 67.2518C376.381 64.9813 380.853 63.846 386.013 63.846C391.173 63.846 395.646 64.9813 399.43 67.2518C403.214 69.5223 406.138 72.7102 408.202 76.8154C410.289 80.9207 411.333 85.7025 411.333 91.1609C411.333 96.6193 410.289 101.39 408.202 105.472C406.138 109.554 403.214 112.731 399.43 115.001C395.646 117.272 391.173 118.407 386.013 118.407ZM386.082 108.431C388.88 108.431 391.219 107.662 393.1 106.126C394.981 104.566 396.38 102.479 397.297 99.8645C398.237 97.25 398.707 94.3373 398.707 91.1265C398.707 87.8928 398.237 84.9686 397.297 82.3541C396.38 79.7166 394.981 77.6181 393.1 76.0586C391.219 74.4991 388.88 73.7193 386.082 73.7193C383.215 73.7193 380.83 74.4991 378.926 76.0586C377.046 77.6181 375.635 79.7166 374.695 82.3541C373.778 84.9686 373.319 87.8928 373.319 91.1265C373.319 94.3373 373.778 97.25 374.695 99.8645C375.635 102.479 377.046 104.566 378.926 106.126C380.83 107.662 383.215 108.431 386.082 108.431Z" fill="white"/>
<path d="M463.666 78.5011L452.314 79.7396C451.993 78.5928 451.431 77.5149 450.628 76.5058C449.848 75.4967 448.793 74.6825 447.463 74.0633C446.133 73.4441 444.505 73.1345 442.578 73.1345C439.986 73.1345 437.808 73.6963 436.042 74.8201C434.299 75.9439 433.439 77.4003 433.462 79.1891C433.439 80.7257 434.001 81.9757 435.147 82.9389C436.317 83.9022 438.243 84.6934 440.927 85.3126L449.94 87.2391C454.94 88.317 458.655 90.0257 461.086 92.365C463.54 94.7043 464.779 97.766 464.801 101.55C464.779 104.876 463.804 107.811 461.877 110.357C459.974 112.88 457.325 114.852 453.931 116.274C450.536 117.696 446.637 118.407 442.234 118.407C435.767 118.407 430.56 117.054 426.616 114.348C422.671 111.618 420.32 107.823 419.563 102.961L431.707 101.791C432.258 104.176 433.427 105.977 435.216 107.192C437.005 108.408 439.333 109.015 442.2 109.015C445.158 109.015 447.532 108.408 449.321 107.192C451.133 105.977 452.038 104.474 452.038 102.685C452.038 101.172 451.454 99.9219 450.284 98.9357C449.137 97.9495 447.348 97.1927 444.917 96.6652L435.904 94.7731C430.836 93.7181 427.086 91.9407 424.655 89.4408C422.224 86.918 421.02 83.7302 421.043 79.8772C421.02 76.6205 421.903 73.7996 423.692 71.4144C425.503 69.0063 428.015 67.1486 431.226 65.8413C434.459 64.5111 438.186 63.846 442.406 63.846C448.598 63.846 453.472 65.1647 457.027 67.8022C460.605 70.4397 462.818 74.006 463.666 78.5011Z" fill="white"/>
<path d="M498.119 118.407C492.845 118.407 488.315 117.249 484.531 114.932C480.77 112.616 477.868 109.417 475.827 105.334C473.809 101.229 472.8 96.5046 472.8 91.1609C472.8 85.7943 473.832 81.0583 475.896 76.953C477.96 72.8248 480.873 69.614 484.634 67.3206C488.418 65.0042 492.89 63.846 498.051 63.846C502.339 63.846 506.135 64.6373 509.438 66.2197C512.763 67.7793 515.412 69.9924 517.384 72.8592C519.357 75.7031 520.481 79.0286 520.756 82.8357H508.853C508.371 80.29 507.224 78.1686 505.413 76.4714C503.624 74.7513 501.227 73.8913 498.223 73.8913C495.677 73.8913 493.441 74.5793 491.514 75.9554C489.588 77.3085 488.086 79.2579 487.008 81.8037C485.953 84.3494 485.425 87.3997 485.425 90.9545C485.425 94.5552 485.953 97.6513 487.008 100.243C488.063 102.812 489.542 104.795 491.446 106.194C493.372 107.57 495.631 108.259 498.223 108.259C500.057 108.259 501.697 107.915 503.142 107.226C504.61 106.516 505.837 105.495 506.823 104.165C507.809 102.835 508.486 101.218 508.853 99.3141H520.756C520.458 103.052 519.357 106.366 517.453 109.256C515.55 112.123 512.958 114.371 509.678 115.999C506.399 117.604 502.546 118.407 498.119 118.407Z" fill="white"/>
<path d="M564.661 95.1515V64.534H577.114V117.375H565.039V107.983H564.489C563.296 110.942 561.335 113.361 558.606 115.242C555.9 117.123 552.563 118.063 548.595 118.063C545.132 118.063 542.07 117.295 539.41 115.758C536.773 114.199 534.708 111.939 533.218 108.981C531.727 105.999 530.982 102.399 530.982 98.1788V64.534H543.435V96.2523C543.435 99.6008 544.352 102.261 546.187 104.234C548.022 106.206 550.43 107.192 553.411 107.192C555.246 107.192 557.024 106.745 558.744 105.85C560.464 104.956 561.874 103.626 562.975 101.86C564.099 100.071 564.661 97.8348 564.661 95.1515Z" fill="white"/>
<path d="M602.374 46.9204V117.375H589.92V46.9204H602.374Z" fill="white"/>
<path d="M615.18 137.19V64.534H627.427V73.2721H628.149C628.791 71.9877 629.697 70.6231 630.867 69.1783C632.036 67.7105 633.619 66.4605 635.614 65.4285C637.609 64.3735 640.155 63.846 643.251 63.846C647.334 63.846 651.015 64.8895 654.294 66.9766C657.597 69.0407 660.211 72.1024 662.138 76.1618C664.087 80.1983 665.062 85.1521 665.062 91.0233C665.062 96.8257 664.11 101.757 662.207 105.816C660.303 109.875 657.712 112.972 654.432 115.104C651.152 117.237 647.437 118.304 643.286 118.304C640.258 118.304 637.747 117.799 635.752 116.79C633.757 115.781 632.151 114.565 630.936 113.144C629.743 111.699 628.814 110.334 628.149 109.05H627.633V137.19H615.18ZM627.392 90.9545C627.392 94.3717 627.874 97.3647 628.837 99.9333C629.823 102.502 631.234 104.509 633.068 105.954C634.926 107.376 637.174 108.087 639.811 108.087C642.563 108.087 644.868 107.353 646.726 105.885C648.584 104.394 649.983 102.364 650.923 99.7957C651.886 97.2041 652.368 94.2571 652.368 90.9545C652.368 87.6749 651.898 84.7622 650.957 82.2165C650.017 79.6708 648.618 77.6755 646.76 76.2306C644.903 74.7857 642.586 74.0633 639.811 74.0633C637.151 74.0633 634.892 74.7628 633.034 76.1618C631.176 77.5608 629.766 79.5217 628.803 82.0445C627.862 84.5673 627.392 87.5373 627.392 90.9545Z" fill="white"/>
<path d="M702.113 64.534V74.1665H671.736V64.534H702.113ZM679.235 51.8742H691.689V101.481C691.689 103.156 691.941 104.44 692.446 105.334C692.973 106.206 693.661 106.802 694.51 107.123C695.358 107.444 696.299 107.605 697.331 107.605C698.11 107.605 698.821 107.548 699.464 107.433C700.129 107.318 700.633 107.215 700.977 107.123L703.076 116.859C702.411 117.088 701.459 117.341 700.22 117.616C699.005 117.891 697.514 118.052 695.748 118.097C692.629 118.189 689.82 117.719 687.32 116.687C684.82 115.632 682.836 114.004 681.368 111.802C679.924 109.6 679.213 106.848 679.235 103.545V51.8742Z" fill="white"/>
<path d="M735.009 118.407C729.849 118.407 725.377 117.272 721.592 115.001C717.808 112.731 714.873 109.554 712.786 105.472C710.722 101.39 709.689 96.6193 709.689 91.1609C709.689 85.7025 710.722 80.9207 712.786 76.8154C714.873 72.7102 717.808 69.5223 721.592 67.2518C725.377 64.9813 729.849 63.846 735.009 63.846C740.169 63.846 744.642 64.9813 748.426 67.2518C752.21 69.5223 755.134 72.7102 757.198 76.8154C759.285 80.9207 760.329 85.7025 760.329 91.1609C760.329 96.6193 759.285 101.39 757.198 105.472C755.134 109.554 752.21 112.731 748.426 115.001C744.642 117.272 740.169 118.407 735.009 118.407ZM735.078 108.431C737.876 108.431 740.215 107.662 742.096 106.126C743.976 104.566 745.375 102.479 746.293 99.8645C747.233 97.25 747.703 94.3373 747.703 91.1265C747.703 87.8928 747.233 84.9686 746.293 82.3541C745.375 79.7166 743.976 77.6181 742.096 76.0586C740.215 74.4991 737.876 73.7193 735.078 73.7193C732.211 73.7193 729.826 74.4991 727.922 76.0586C726.042 77.6181 724.631 79.7166 723.691 82.3541C722.774 84.9686 722.315 87.8928 722.315 91.1265C722.315 94.3373 722.774 97.25 723.691 99.8645C724.631 102.479 726.042 104.566 727.922 106.126C729.826 107.662 732.211 108.431 735.078 108.431Z" fill="white"/>
<path d="M770.899 117.375V64.534H782.974V73.3409H783.524C784.487 70.2906 786.139 67.9398 788.478 66.2885C790.84 64.6143 793.535 63.7772 796.562 63.7772C797.25 63.7772 798.019 63.8116 798.867 63.8804C799.739 63.9263 800.461 64.0066 801.034 64.1212V75.577C800.507 75.3935 799.67 75.233 798.523 75.0953C797.399 74.9348 796.31 74.8545 795.255 74.8545C792.984 74.8545 790.943 75.3476 789.131 76.3338C787.343 77.2971 785.932 78.6387 784.9 80.3588C783.868 82.0789 783.352 84.0627 783.352 86.3103V117.375H770.899Z" fill="white"/>
<path d="M207.288 117.375H193.665L218.469 46.9204H234.225L259.063 117.375H245.439L226.622 61.3691H226.071L207.288 117.375ZM207.735 89.7504H244.889V100.002H207.735V89.7504Z" stroke="black" stroke-opacity="0.25" stroke-width="8" mask="url(#path-1-outside-1_5_47)"/>
<path d="M301.471 95.1515V64.534H313.925V117.375H301.85V107.983H301.299C300.107 110.942 298.146 113.361 295.416 115.242C292.71 117.123 289.373 118.063 285.406 118.063C281.942 118.063 278.881 117.295 276.22 115.758C273.583 114.199 271.519 111.939 270.028 108.981C268.537 105.999 267.792 102.399 267.792 98.1788V64.534H280.245V96.2523C280.245 99.6008 281.163 102.261 282.997 104.234C284.832 106.206 287.24 107.192 290.222 107.192C292.057 107.192 293.834 106.745 295.554 105.85C297.274 104.956 298.685 103.626 299.785 101.86C300.909 100.071 301.471 97.8348 301.471 95.1515Z" stroke="black" stroke-opacity="0.25" stroke-width="8" mask="url(#path-1-outside-1_5_47)"/>
<path d="M353.117 64.534V74.1665H322.74V64.534H353.117ZM330.24 51.8742H342.693V101.481C342.693 103.156 342.945 104.44 343.45 105.334C343.977 106.206 344.665 106.802 345.514 107.123C346.362 107.444 347.303 107.605 348.335 107.605C349.115 107.605 349.826 107.548 350.468 107.433C351.133 107.318 351.637 107.215 351.981 107.123L354.08 116.859C353.415 117.088 352.463 117.341 351.225 117.616C350.009 117.891 348.518 118.052 346.752 118.097C343.633 118.189 340.824 117.719 338.324 116.687C335.824 115.632 333.84 114.004 332.372 111.802C330.928 109.6 330.217 106.848 330.24 103.545V51.8742Z" stroke="black" stroke-opacity="0.25" stroke-width="8" mask="url(#path-1-outside-1_5_47)"/>
<path d="M386.013 118.407C380.853 118.407 376.381 117.272 372.597 115.001C368.812 112.731 365.877 109.554 363.79 105.472C361.726 101.39 360.694 96.6193 360.694 91.1609C360.694 85.7025 361.726 80.9207 363.79 76.8154C365.877 72.7102 368.812 69.5223 372.597 67.2518C376.381 64.9813 380.853 63.846 386.013 63.846C391.173 63.846 395.646 64.9813 399.43 67.2518C403.214 69.5223 406.138 72.7102 408.202 76.8154C410.289 80.9207 411.333 85.7025 411.333 91.1609C411.333 96.6193 410.289 101.39 408.202 105.472C406.138 109.554 403.214 112.731 399.43 115.001C395.646 117.272 391.173 118.407 386.013 118.407ZM386.082 108.431C388.88 108.431 391.219 107.662 393.1 106.126C394.981 104.566 396.38 102.479 397.297 99.8645C398.237 97.25 398.707 94.3373 398.707 91.1265C398.707 87.8928 398.237 84.9686 397.297 82.3541C396.38 79.7166 394.981 77.6181 393.1 76.0586C391.219 74.4991 388.88 73.7193 386.082 73.7193C383.215 73.7193 380.83 74.4991 378.926 76.0586C377.046 77.6181 375.635 79.7166 374.695 82.3541C373.778 84.9686 373.319 87.8928 373.319 91.1265C373.319 94.3373 373.778 97.25 374.695 99.8645C375.635 102.479 377.046 104.566 378.926 106.126C380.83 107.662 383.215 108.431 386.082 108.431Z" stroke="black" stroke-opacity="0.25" stroke-width="8" mask="url(#path-1-outside-1_5_47)"/>
<path d="M463.666 78.5011L452.314 79.7396C451.993 78.5928 451.431 77.5149 450.628 76.5058C449.848 75.4967 448.793 74.6825 447.463 74.0633C446.133 73.4441 444.505 73.1345 442.578 73.1345C439.986 73.1345 437.808 73.6963 436.042 74.8201C434.299 75.9439 433.439 77.4003 433.462 79.1891C433.439 80.7257 434.001 81.9757 435.147 82.9389C436.317 83.9022 438.243 84.6934 440.927 85.3126L449.94 87.2391C454.94 88.317 458.655 90.0257 461.086 92.365C463.54 94.7043 464.779 97.766 464.801 101.55C464.779 104.876 463.804 107.811 461.877 110.357C459.974 112.88 457.325 114.852 453.931 116.274C450.536 117.696 446.637 118.407 442.234 118.407C435.767 118.407 430.56 117.054 426.616 114.348C422.671 111.618 420.32 107.823 419.563 102.961L431.707 101.791C432.258 104.176 433.427 105.977 435.216 107.192C437.005 108.408 439.333 109.015 442.2 109.015C445.158 109.015 447.532 108.408 449.321 107.192C451.133 105.977 452.038 104.474 452.038 102.685C452.038 101.172 451.454 99.9219 450.284 98.9357C449.137 97.9495 447.348 97.1927 444.917 96.6652L435.904 94.7731C430.836 93.7181 427.086 91.9407 424.655 89.4408C422.224 86.918 421.02 83.7302 421.043 79.8772C421.02 76.6205 421.903 73.7996 423.692 71.4144C425.503 69.0063 428.015 67.1486 431.226 65.8413C434.459 64.5111 438.186 63.846 442.406 63.846C448.598 63.846 453.472 65.1647 457.027 67.8022C460.605 70.4397 462.818 74.006 463.666 78.5011Z" stroke="black" stroke-opacity="0.25" stroke-width="8" mask="url(#path-1-outside-1_5_47)"/>
<path d="M498.119 118.407C492.845 118.407 488.315 117.249 484.531 114.932C480.77 112.616 477.868 109.417 475.827 105.334C473.809 101.229 472.8 96.5046 472.8 91.1609C472.8 85.7943 473.832 81.0583 475.896 76.953C477.96 72.8248 480.873 69.614 484.634 67.3206C488.418 65.0042 492.89 63.846 498.051 63.846C502.339 63.846 506.135 64.6373 509.438 66.2197C512.763 67.7793 515.412 69.9924 517.384 72.8592C519.357 75.7031 520.481 79.0286 520.756 82.8357H508.853C508.371 80.29 507.224 78.1686 505.413 76.4714C503.624 74.7513 501.227 73.8913 498.223 73.8913C495.677 73.8913 493.441 74.5793 491.514 75.9554C489.588 77.3085 488.086 79.2579 487.008 81.8037C485.953 84.3494 485.425 87.3997 485.425 90.9545C485.425 94.5552 485.953 97.6513 487.008 100.243C488.063 102.812 489.542 104.795 491.446 106.194C493.372 107.57 495.631 108.259 498.223 108.259C500.057 108.259 501.697 107.915 503.142 107.226C504.61 106.516 505.837 105.495 506.823 104.165C507.809 102.835 508.486 101.218 508.853 99.3141H520.756C520.458 103.052 519.357 106.366 517.453 109.256C515.55 112.123 512.958 114.371 509.678 115.999C506.399 117.604 502.546 118.407 498.119 118.407Z" stroke="black" stroke-opacity="0.25" stroke-width="8" mask="url(#path-1-outside-1_5_47)"/>
<path d="M564.661 95.1515V64.534H577.114V117.375H565.039V107.983H564.489C563.296 110.942 561.335 113.361 558.606 115.242C555.9 117.123 552.563 118.063 548.595 118.063C545.132 118.063 542.07 117.295 539.41 115.758C536.773 114.199 534.708 111.939 533.218 108.981C531.727 105.999 530.982 102.399 530.982 98.1788V64.534H543.435V96.2523C543.435 99.6008 544.352 102.261 546.187 104.234C548.022 106.206 550.43 107.192 553.411 107.192C555.246 107.192 557.024 106.745 558.744 105.85C560.464 104.956 561.874 103.626 562.975 101.86C564.099 100.071 564.661 97.8348 564.661 95.1515Z" stroke="black" stroke-opacity="0.25" stroke-width="8" mask="url(#path-1-outside-1_5_47)"/>
<path d="M602.374 46.9204V117.375H589.92V46.9204H602.374Z" stroke="black" stroke-opacity="0.25" stroke-width="8" mask="url(#path-1-outside-1_5_47)"/>
<path d="M615.18 137.19V64.534H627.427V73.2721H628.149C628.791 71.9877 629.697 70.6231 630.867 69.1783C632.036 67.7105 633.619 66.4605 635.614 65.4285C637.609 64.3735 640.155 63.846 643.251 63.846C647.334 63.846 651.015 64.8895 654.294 66.9766C657.597 69.0407 660.211 72.1024 662.138 76.1618C664.087 80.1983 665.062 85.1521 665.062 91.0233C665.062 96.8257 664.11 101.757 662.207 105.816C660.303 109.875 657.712 112.972 654.432 115.104C651.152 117.237 647.437 118.304 643.286 118.304C640.258 118.304 637.747 117.799 635.752 116.79C633.757 115.781 632.151 114.565 630.936 113.144C629.743 111.699 628.814 110.334 628.149 109.05H627.633V137.19H615.18ZM627.392 90.9545C627.392 94.3717 627.874 97.3647 628.837 99.9333C629.823 102.502 631.234 104.509 633.068 105.954C634.926 107.376 637.174 108.087 639.811 108.087C642.563 108.087 644.868 107.353 646.726 105.885C648.584 104.394 649.983 102.364 650.923 99.7957C651.886 97.2041 652.368 94.2571 652.368 90.9545C652.368 87.6749 651.898 84.7622 650.957 82.2165C650.017 79.6708 648.618 77.6755 646.76 76.2306C644.903 74.7857 642.586 74.0633 639.811 74.0633C637.151 74.0633 634.892 74.7628 633.034 76.1618C631.176 77.5608 629.766 79.5217 628.803 82.0445C627.862 84.5673 627.392 87.5373 627.392 90.9545Z" stroke="black" stroke-opacity="0.25" stroke-width="8" mask="url(#path-1-outside-1_5_47)"/>
<path d="M702.113 64.534V74.1665H671.736V64.534H702.113ZM679.235 51.8742H691.689V101.481C691.689 103.156 691.941 104.44 692.446 105.334C692.973 106.206 693.661 106.802 694.51 107.123C695.358 107.444 696.299 107.605 697.331 107.605C698.11 107.605 698.821 107.548 699.464 107.433C700.129 107.318 700.633 107.215 700.977 107.123L703.076 116.859C702.411 117.088 701.459 117.341 700.22 117.616C699.005 117.891 697.514 118.052 695.748 118.097C692.629 118.189 689.82 117.719 687.32 116.687C684.82 115.632 682.836 114.004 681.368 111.802C679.924 109.6 679.213 106.848 679.235 103.545V51.8742Z" stroke="black" stroke-opacity="0.25" stroke-width="8" mask="url(#path-1-outside-1_5_47)"/>
<path d="M735.009 118.407C729.849 118.407 725.377 117.272 721.592 115.001C717.808 112.731 714.873 109.554 712.786 105.472C710.722 101.39 709.689 96.6193 709.689 91.1609C709.689 85.7025 710.722 80.9207 712.786 76.8154C714.873 72.7102 717.808 69.5223 721.592 67.2518C725.377 64.9813 729.849 63.846 735.009 63.846C740.169 63.846 744.642 64.9813 748.426 67.2518C752.21 69.5223 755.134 72.7102 757.198 76.8154C759.285 80.9207 760.329 85.7025 760.329 91.1609C760.329 96.6193 759.285 101.39 757.198 105.472C755.134 109.554 752.21 112.731 748.426 115.001C744.642 117.272 740.169 118.407 735.009 118.407ZM735.078 108.431C737.876 108.431 740.215 107.662 742.096 106.126C743.976 104.566 745.375 102.479 746.293 99.8645C747.233 97.25 747.703 94.3373 747.703 91.1265C747.703 87.8928 747.233 84.9686 746.293 82.3541C745.375 79.7166 743.976 77.6181 742.096 76.0586C740.215 74.4991 737.876 73.7193 735.078 73.7193C732.211 73.7193 729.826 74.4991 727.922 76.0586C726.042 77.6181 724.631 79.7166 723.691 82.3541C722.774 84.9686 722.315 87.8928 722.315 91.1265C722.315 94.3373 722.774 97.25 723.691 99.8645C724.631 102.479 726.042 104.566 727.922 106.126C729.826 107.662 732.211 108.431 735.078 108.431Z" stroke="black" stroke-opacity="0.25" stroke-width="8" mask="url(#path-1-outside-1_5_47)"/>
<path d="M770.899 117.375V64.534H782.974V73.3409H783.524C784.487 70.2906 786.139 67.9398 788.478 66.2885C790.84 64.6143 793.535 63.7772 796.562 63.7772C797.25 63.7772 798.019 63.8116 798.867 63.8804C799.739 63.9263 800.461 64.0066 801.034 64.1212V75.577C800.507 75.3935 799.67 75.233 798.523 75.0953C797.399 74.9348 796.31 74.8545 795.255 74.8545C792.984 74.8545 790.943 75.3476 789.131 76.3338C787.343 77.2971 785.932 78.6387 784.9 80.3588C783.868 82.0789 783.352 84.0627 783.352 86.3103V117.375H770.899Z" stroke="black" stroke-opacity="0.25" stroke-width="8" mask="url(#path-1-outside-1_5_47)"/>
<mask id="path-2-outside-2_5_47" maskUnits="userSpaceOnUse" x="0" y="0" width="163" height="163" fill="black">
<rect fill="white" width="163" height="163"/>
<path fill-rule="evenodd" clip-rule="evenodd" d="M81.5 4C102.901 4 120.25 21.349 120.25 42.75C141.651 42.75 159 60.099 159 81.5C159 102.901 141.651 120.25 120.25 120.25C120.25 141.651 102.901 159 81.5 159C60.099 159 42.75 141.651 42.75 120.25C21.349 120.25 4 102.901 4 81.5C4 60.099 21.349 42.75 42.75 42.75C42.75 21.349 60.099 4 81.5 4ZM81.4998 110.562C97.5506 110.562 110.562 97.5508 110.562 81.5C110.562 65.4492 97.5506 52.4375 81.4998 52.4375C65.4491 52.4375 52.4373 65.4492 52.4373 81.5C52.4373 97.5508 65.4491 110.562 81.4998 110.562Z"/>
</mask>
<path fill-rule="evenodd" clip-rule="evenodd" d="M81.5 4C102.901 4 120.25 21.349 120.25 42.75C141.651 42.75 159 60.099 159 81.5C159 102.901 141.651 120.25 120.25 120.25C120.25 141.651 102.901 159 81.5 159C60.099 159 42.75 141.651 42.75 120.25C21.349 120.25 4 102.901 4 81.5C4 60.099 21.349 42.75 42.75 42.75C42.75 21.349 60.099 4 81.5 4ZM81.4998 110.562C97.5506 110.562 110.562 97.5508 110.562 81.5C110.562 65.4492 97.5506 52.4375 81.4998 52.4375C65.4491 52.4375 52.4373 65.4492 52.4373 81.5C52.4373 97.5508 65.4491 110.562 81.4998 110.562Z" fill="white"/>
<path d="M120.25 42.75H116.25V46.75L120.25 46.75L120.25 42.75ZM120.25 120.25V116.25H116.25V120.25H120.25ZM42.75 120.25H46.75V116.25H42.75V120.25ZM42.75 42.75V46.75H46.75V42.75H42.75ZM124.25 42.75C124.25 19.1398 105.11 0 81.5 0V8C100.692 8 116.25 23.5581 116.25 42.75H124.25ZM163 81.5C163 57.8898 143.86 38.75 120.25 38.75L120.25 46.75C139.442 46.75 155 62.3081 155 81.5H163ZM120.25 124.25C143.86 124.25 163 105.11 163 81.5H155C155 100.692 139.442 116.25 120.25 116.25V124.25ZM81.5 163C105.11 163 124.25 143.86 124.25 120.25H116.25C116.25 139.442 100.692 155 81.5 155V163ZM38.75 120.25C38.75 143.86 57.8898 163 81.5 163V155C62.3081 155 46.75 139.442 46.75 120.25H38.75ZM0 81.5C0 105.11 19.1398 124.25 42.75 124.25V116.25C23.5581 116.25 8 100.692 8 81.5H0ZM42.75 38.75C19.1398 38.75 0 57.8898 0 81.5H8C8 62.3081 23.5581 46.75 42.75 46.75V38.75ZM81.5 0C57.8898 0 38.75 19.1398 38.75 42.75H46.75C46.75 23.5581 62.3081 8 81.5 8V0ZM106.562 81.5C106.562 95.3416 95.3415 106.562 81.4998 106.562V114.562C99.7598 114.562 114.562 99.7599 114.562 81.5H106.562ZM81.4998 56.4375C95.3415 56.4375 106.562 67.6584 106.562 81.5H114.562C114.562 63.2401 99.7598 48.4375 81.4998 48.4375V56.4375ZM56.4373 81.5C56.4373 67.6584 67.6582 56.4375 81.4998 56.4375V48.4375C63.2399 48.4375 48.4373 63.2401 48.4373 81.5H56.4373ZM81.4998 106.562C67.6582 106.562 56.4373 95.3416 56.4373 81.5H48.4373C48.4373 99.7599 63.2399 114.562 81.4998 114.562V106.562Z" fill="black" fill-opacity="0.25" mask="url(#path-2-outside-2_5_47)"/>
</svg>
